# xmcd CD database file
# Copyright (C) 1993-1998 Ti Kan
#
# Track frame offsets:
# 150
# 19845
# 33810
# 51745
# 68857
# 95502
# 109545
# 134835
# 155445
# 170227
# 190642
# 204484
# 217262
#
# Disc length: 3349 seconds
# Revision: 0
# Processed by: cddbd v1.4b41PL1 Copyright (c) Steve Scherf et al.
# Submitted via: CDSpectrumPro v3.3.330
#
DISCID=c40d130d
DTITLE=Motor Town Juke Boys - White Folks Havin' Fun
DYEAR=1900
DGENRE=
TTITLE0=Homage to Beer Blues
TTITLE1=Dr. Sullivan's Snake Juice
TTITLE2=Somethin's Gone Wrong
TTITLE3=White Folks Havin' Fun
TTITLE4=Double Wide Love
TTITLE5=Krystal's Motor Town Cafe
TTITLE6=The Bradley
TTITLE7=Last Call
TTITLE8=Great Lakes Blues
TTITLE9=Michigan Farmer
TTITLE10=Cocaine Annie
TTITLE11=Zug Island Love Song
TTITLE12=Mumblin' Blues
EXTD=Motor Town Juke Boys Michigan Debut.
EXTT0=
EXTT1=
EXTT2=
EXTT3=
EXTT4=
EXTT5=
EXTT6=
EXTT7=
EXTT8=
EXTT9=
EXTT10=
EXTT11=
EXTT12=
PLAYORDER=
